# xmcd CD database file
#
# Track frame offsets:
#	150
#	22415
#	40660
#	62007
#	82310
#	102765
#	120762
#	151070
#	169255
#	188847
#	219910
#	235992
#	255130
#	278080
#	299810
#
# Disc length: 4330 seconds
#
# Revision: 0
# Processed by: cddbd v1.5.1PL0 Copyright (c) Steve Scherf et al.
# Submitted via: CDex 1.51
#
DISCID=cc10e80f
DTITLE=Compilation Album - mellow
DYEAR=1900
DGENRE=Rock
TTITLE0=Take Me to Heaven - ALIEN
TTITLE1=Cheyenne - EYES
TTITLE2=Inside Out - JADDED HEART
TTITLE3=Don't Cry No More - BILOXI
TTITLE4=Lonely Voices - WITHOUT WARNING
TTITLE5=Stormy Roads - FORTUNE
TTITLE6=The Inner Room - THE QUEST
TTITLE7=Let It Be - CANNATA
TTITLE8=Carry On - ANGEL HEART
TTITLE9=Until Tomorrow - MIDNIGHT BLUE
TTITLE10=Aurora Borealis - THOMAS LARSSON
TTITLE11=A Place to Hide in Town - MIKAEL ERLANDSON
TTITLE12=Yesterday Lies in the Flames - TEN
TTITLE13=Changes - CAUGHT IN THE ACT
TTITLE14=Long Way From Love - MARK FREE
EXTD=
EXTT0=
EXTT1=
EXTT2=
EXTT3=
EXTT4=
EXTT5=
EXTT6=
EXTT7=
EXTT8=
EXTT9=
EXTT10=
EXTT11=
EXTT12=
EXTT13=
EXTT14=
PLAYORDER=
